<?xml version="1.0" encoding="UTF-8" standalone="no"?>
<!-- Created with Inkscape (http://www.inkscape.org/) -->

<svg
   xmlns:dc="http://purl.org/dc/elements/1.1/"
   xmlns:cc="http://creativecommons.org/ns#"
   xmlns:rdf="http://www.w3.org/1999/02/22-rdf-syntax-ns#"
   xmlns:svg="http://www.w3.org/2000/svg"
   xmlns="http://www.w3.org/2000/svg"
   xmlns:sodipodi="http://sodipodi.sourceforge.net/DTD/sodipodi-0.dtd"
   xmlns:inkscape="http://www.inkscape.org/namespaces/inkscape"
   width="607.35327"
   height="414.8653"
   id="svg2"
   version="1.1"
   inkscape:version="0.48.4 r9939"
   sodipodi:docname="sha_MDD.svg">
  <defs
     id="defs4">
    <marker
       inkscape:stockid="Arrow1Lend"
       orient="auto"
       refY="0"
       refX="0"
       id="Arrow1Lend"
       style="overflow:visible">
      <path
         id="path4370"
         d="M 0,0 5,-5 -12.5,0 5,5 0,0 z"
         style="fill-rule:evenodd;stroke:#000000;stroke-width:1pt"
         transform="matrix(-0.8,0,0,-0.8,-10,0)"
         inkscape:connector-curvature="0" />
    </marker>
    <marker
       inkscape:stockid="Arrow1Lend"
       orient="auto"
       refY="0"
       refX="0"
       id="Arrow1Lend-4"
       style="overflow:visible">
      <path
         inkscape:connector-curvature="0"
         id="path4370-0"
         d="M 0,0 5,-5 -12.5,0 5,5 0,0 z"
         style="fill-rule:evenodd;stroke:#000000;stroke-width:1pt"
         transform="matrix(-0.8,0,0,-0.8,-10,0)" />
    </marker>
    <marker
       inkscape:stockid="Arrow1Lend"
       orient="auto"
       refY="0"
       refX="0"
       id="Arrow1Lend-48"
       style="overflow:visible">
      <path
         inkscape:connector-curvature="0"
         id="path4370-8"
         d="M 0,0 5,-5 -12.5,0 5,5 0,0 z"
         style="fill-rule:evenodd;stroke:#000000;stroke-width:1pt"
         transform="matrix(-0.8,0,0,-0.8,-10,0)" />
    </marker>
    <marker
       inkscape:stockid="Arrow1Lend"
       orient="auto"
       refY="0"
       refX="0"
       id="Arrow1Lend-45"
       style="overflow:visible">
      <path
         inkscape:connector-curvature="0"
         id="path4370-5"
         d="M 0,0 5,-5 -12.5,0 5,5 0,0 z"
         style="fill-rule:evenodd;stroke:#000000;stroke-width:1pt"
         transform="matrix(-0.8,0,0,-0.8,-10,0)" />
    </marker>
    <marker
       inkscape:stockid="Arrow1Lend"
       orient="auto"
       refY="0"
       refX="0"
       id="Arrow1Lend-7"
       style="overflow:visible">
      <path
         inkscape:connector-curvature="0"
         id="path4370-1"
         d="M 0,0 5,-5 -12.5,0 5,5 0,0 z"
         style="fill-rule:evenodd;stroke:#000000;stroke-width:1pt"
         transform="matrix(-0.8,0,0,-0.8,-10,0)" />
    </marker>
    <marker
       inkscape:stockid="Arrow1Lend"
       orient="auto"
       refY="0"
       refX="0"
       id="Arrow1Lend-2"
       style="overflow:visible">
      <path
         inkscape:connector-curvature="0"
         id="path4370-7"
         d="M 0,0 5,-5 -12.5,0 5,5 0,0 z"
         style="fill-rule:evenodd;stroke:#000000;stroke-width:1pt"
         transform="matrix(-0.8,0,0,-0.8,-10,0)" />
    </marker>
    <marker
       inkscape:stockid="Arrow1Lend"
       orient="auto"
       refY="0"
       refX="0"
       id="Arrow1Lend-1"
       style="overflow:visible">
      <path
         inkscape:connector-curvature="0"
         id="path4370-4"
         d="M 0,0 5,-5 -12.5,0 5,5 0,0 z"
         style="fill-rule:evenodd;stroke:#000000;stroke-width:1pt"
         transform="matrix(-0.8,0,0,-0.8,-10,0)" />
    </marker>
    <marker
       inkscape:stockid="Arrow1Lend"
       orient="auto"
       refY="0"
       refX="0"
       id="Arrow1Lend-16"
       style="overflow:visible">
      <path
         inkscape:connector-curvature="0"
         id="path4370-85"
         d="M 0,0 5,-5 -12.5,0 5,5 0,0 z"
         style="fill-rule:evenodd;stroke:#000000;stroke-width:1pt"
         transform="matrix(-0.8,0,0,-0.8,-10,0)" />
    </marker>
    <marker
       inkscape:stockid="Arrow1Lend"
       orient="auto"
       refY="0"
       refX="0"
       id="Arrow1Lend-6"
       style="overflow:visible">
      <path
         inkscape:connector-curvature="0"
         id="path4370-18"
         d="M 0,0 5,-5 -12.5,0 5,5 0,0 z"
         style="fill-rule:evenodd;stroke:#000000;stroke-width:1pt"
         transform="matrix(-0.8,0,0,-0.8,-10,0)" />
    </marker>
    <marker
       inkscape:stockid="Arrow1Lend"
       orient="auto"
       refY="0"
       refX="0"
       id="Arrow1Lend-43"
       style="overflow:visible">
      <path
         inkscape:connector-curvature="0"
         id="path4370-12"
         d="M 0,0 5,-5 -12.5,0 5,5 0,0 z"
         style="fill-rule:evenodd;stroke:#000000;stroke-width:1pt"
         transform="matrix(-0.8,0,0,-0.8,-10,0)" />
    </marker>
    <marker
       inkscape:stockid="Arrow1Lend"
       orient="auto"
       refY="0"
       refX="0"
       id="Arrow1Lend-3"
       style="overflow:visible">
      <path
         inkscape:connector-curvature="0"
         id="path4370-41"
         d="M 0,0 5,-5 -12.5,0 5,5 0,0 z"
         style="fill-rule:evenodd;stroke:#000000;stroke-width:1pt"
         transform="matrix(-0.8,0,0,-0.8,-10,0)" />
    </marker>
    <marker
       inkscape:stockid="Arrow1Lend"
       orient="auto"
       refY="0"
       refX="0"
       id="Arrow1Lend-38"
       style="overflow:visible">
      <path
         inkscape:connector-curvature="0"
         id="path4370-74"
         d="M 0,0 5,-5 -12.5,0 5,5 0,0 z"
         style="fill-rule:evenodd;stroke:#000000;stroke-width:1pt"
         transform="matrix(-0.8,0,0,-0.8,-10,0)" />
    </marker>
    <marker
       inkscape:stockid="Arrow1Lend"
       orient="auto"
       refY="0"
       refX="0"
       id="Arrow1Lend-77"
       style="overflow:visible">
      <path
         inkscape:connector-curvature="0"
         id="path4370-9"
         d="M 0,0 5,-5 -12.5,0 5,5 0,0 z"
         style="fill-rule:evenodd;stroke:#000000;stroke-width:1pt"
         transform="matrix(-0.8,0,0,-0.8,-10,0)" />
    </marker>
    <marker
       inkscape:stockid="Arrow1Lend"
       orient="auto"
       refY="0"
       refX="0"
       id="Arrow1Lend-19"
       style="overflow:visible">
      <path
         inkscape:connector-curvature="0"
         id="path4370-86"
         d="M 0,0 5,-5 -12.5,0 5,5 0,0 z"
         style="fill-rule:evenodd;stroke:#000000;stroke-width:1pt"
         transform="matrix(-0.8,0,0,-0.8,-10,0)" />
    </marker>
    <marker
       inkscape:stockid="Arrow1Lend"
       orient="auto"
       refY="0"
       refX="0"
       id="Arrow1Lend-0"
       style="overflow:visible">
      <path
         inkscape:connector-curvature="0"
         id="path4370-2"
         d="M 0,0 5,-5 -12.5,0 5,5 0,0 z"
         style="fill-rule:evenodd;stroke:#000000;stroke-width:1pt"
         transform="matrix(-0.8,0,0,-0.8,-10,0)" />
    </marker>
    <marker
       inkscape:stockid="Arrow1Lend"
       orient="auto"
       refY="0"
       refX="0"
       id="Arrow1Lend-24"
       style="overflow:visible">
      <path
         inkscape:connector-curvature="0"
         id="path4370-865"
         d="M 0,0 5,-5 -12.5,0 5,5 0,0 z"
         style="fill-rule:evenodd;stroke:#000000;stroke-width:1pt"
         transform="matrix(-0.8,0,0,-0.8,-10,0)" />
    </marker>
    <marker
       inkscape:stockid="Arrow1Lend"
       orient="auto"
       refY="0"
       refX="0"
       id="Arrow1Lend-9"
       style="overflow:visible">
      <path
         inkscape:connector-curvature="0"
         id="path4370-00"
         d="M 0,0 5,-5 -12.5,0 5,5 0,0 z"
         style="fill-rule:evenodd;stroke:#000000;stroke-width:1pt"
         transform="matrix(-0.8,0,0,-0.8,-10,0)" />
    </marker>
    <marker
       inkscape:stockid="Arrow1Lend"
       orient="auto"
       refY="0"
       refX="0"
       id="Arrow1Lend-13"
       style="overflow:visible">
      <path
         inkscape:connector-curvature="0"
         id="path4370-89"
         d="M 0,0 5,-5 -12.5,0 5,5 0,0 z"
         style="fill-rule:evenodd;stroke:#000000;stroke-width:1pt"
         transform="matrix(-0.8,0,0,-0.8,-10,0)" />
    </marker>
    <marker
       inkscape:stockid="Arrow1Lend"
       orient="auto"
       refY="0"
       refX="0"
       id="Arrow1Lend-18"
       style="overflow:visible">
      <path
         inkscape:connector-curvature="0"
         id="path4370-49"
         d="M 0,0 5,-5 -12.5,0 5,5 0,0 z"
         style="fill-rule:evenodd;stroke:#000000;stroke-width:1pt"
         transform="matrix(-0.8,0,0,-0.8,-10,0)" />
    </marker>
    <marker
       inkscape:stockid="Arrow1Lend"
       orient="auto"
       refY="0"
       refX="0"
       id="Arrow1Lend-91"
       style="overflow:visible">
      <path
         inkscape:connector-curvature="0"
         id="path4370-3"
         d="M 0,0 5,-5 -12.5,0 5,5 0,0 z"
         style="fill-rule:evenodd;stroke:#000000;stroke-width:1pt"
         transform="matrix(-0.8,0,0,-0.8,-10,0)" />
    </marker>
    <marker
       inkscape:stockid="Arrow1Lend"
       orient="auto"
       refY="0"
       refX="0"
       id="Arrow1Lend-98"
       style="overflow:visible">
      <path
         inkscape:connector-curvature="0"
         id="path4370-40"
         d="M 0,0 5,-5 -12.5,0 5,5 0,0 z"
         style="fill-rule:evenodd;stroke:#000000;stroke-width:1pt"
         transform="matrix(-0.8,0,0,-0.8,-10,0)" />
    </marker>
    <marker
       inkscape:stockid="Arrow1Lend"
       orient="auto"
       refY="0"
       refX="0"
       id="Arrow1Lend-63"
       style="overflow:visible">
      <path
         inkscape:connector-curvature="0"
         id="path4370-6"
         d="M 0,0 5,-5 -12.5,0 5,5 0,0 z"
         style="fill-rule:evenodd;stroke:#000000;stroke-width:1pt"
         transform="matrix(-0.8,0,0,-0.8,-10,0)" />
    </marker>
  </defs>
  <sodipodi:namedview
     id="base"
     pagecolor="#ffffff"
     bordercolor="#666666"
     borderopacity="1.0"
     inkscape:pageopacity="0.0"
     inkscape:pageshadow="2"
     inkscape:zoom="0.98994949"
     inkscape:cx="474.1117"
     inkscape:cy="217.5848"
     inkscape:document-units="px"
     inkscape:current-layer="layer1"
     showgrid="false"
     inkscape:window-width="1920"
     inkscape:window-height="1137"
     inkscape:window-x="-8"
     inkscape:window-y="-8"
     inkscape:window-maximized="1"
     fit-margin-top="0"
     fit-margin-left="0"
     fit-margin-right="0"
     fit-margin-bottom="0" />
  <metadata
     id="metadata7">
    <rdf:RDF>
      <cc:Work
         rdf:about="">
        <dc:format>image/svg+xml</dc:format>
        <dc:type
           rdf:resource="http://purl.org/dc/dcmitype/StillImage" />
        <dc:title></dc:title>
      </cc:Work>
    </rdf:RDF>
  </metadata>
  <g
     inkscape:label="Layer 1"
     inkscape:groupmode="layer"
     id="layer1"
     transform="translate(1276.5077,89.182392)">
    <g
       style="font-size:27.5px;font-style:normal;font-weight:normal;line-height:125%;letter-spacing:0px;word-spacing:0px;fill:#000000;fill-opacity:1;stroke:none;font-family:Sans"
       id="text2985">
      <path
         d="m -1266.3765,-67.644135 c -0.8952,0.760906 -1.7568,1.298015 -2.5848,1.611329 -0.8281,0.313313 -1.7165,0.46997 -2.6654,0.46997 -1.5666,0 -2.7706,-0.38269 -3.6121,-1.148071 -0.8414,-0.765379 -1.2622,-1.743365 -1.2622,-2.93396 0,-0.698238 0.1589,-1.336054 0.4767,-1.913452 0.3178,-0.577386 0.7341,-1.040643 1.2488,-1.389771 0.5147,-0.349113 1.0943,-0.613192 1.7389,-0.792236 0.4744,-0.125317 1.1906,-0.246167 2.1484,-0.362549 1.9515,-0.232739 3.3883,-0.510245 4.3103,-0.832519 0.01,-0.331208 0.013,-0.541576 0.013,-0.631104 0,-0.98469 -0.2282,-1.678455 -0.6848,-2.081299 -0.6177,-0.546049 -1.5352,-0.819079 -2.7527,-0.819091 -1.1368,1.2e-5 -1.9761,0.19919 -2.5177,0.597534 -0.5415,0.398367 -0.9421,1.103323 -1.2017,2.114868 l -2.3633,-0.322266 c 0.2148,-1.011544 0.5684,-1.828398 1.0608,-2.450561 0.4923,-0.622139 1.204,-1.101061 2.135,-1.436768 0.931,-0.335679 2.0097,-0.503525 3.2361,-0.50354 1.2174,1.5e-5 2.2066,0.143244 2.9675,0.429688 0.7609,0.286472 1.3204,0.646782 1.6785,1.080932 0.358,0.434176 0.6087,0.982475 0.7519,1.644898 0.081,0.411795 0.1209,1.154795 0.1209,2.229004 l 0,3.222656 c 0,2.246911 0.051,3.668012 0.1544,4.263306 0.1029,0.595297 0.3066,1.165975 0.6109,1.712036 l -2.5244,0 c -0.2506,-0.501302 -0.4118,-1.087646 -0.4834,-1.759034 z m -0.2014,-5.397949 c -0.8773,0.35808 -2.1932,0.662442 -3.9477,0.913086 -0.9937,0.143235 -1.6964,0.304368 -2.1082,0.483399 -0.4118,0.179042 -0.7296,0.440882 -0.9534,0.785522 -0.2238,0.34465 -0.3357,0.72734 -0.3357,1.148071 0,0.644535 0.244,1.181644 0.7319,1.611329 0.4878,0.429689 1.2017,0.644532 2.1417,0.644531 0.931,10e-7 1.759,-0.203652 2.4841,-0.610962 0.7251,-0.407306 1.2577,-0.964556 1.5979,-1.671753 0.2596,-0.546057 0.3894,-1.35172 0.3894,-2.416992 z"
         style=""
         id="path6852" />
    </g>
    <g
       style="font-size:27.5px;font-style:normal;font-weight:normal;line-height:125%;letter-spacing:0px;word-spacing:0px;fill:#000000;fill-opacity:1;stroke:none;font-family:Sans"
       id="text2989">
      <path
         d="m -1273.8759,-9.2099266 -2.2424,0 0,-19.6850584 2.417,0 0,7.022705 c 1.0205,-1.280097 2.323,-1.920152 3.9075,-1.920166 0.8772,1.4e-5 1.7075,0.176813 2.4908,0.530395 0.7833,0.353611 1.4278,0.850437 1.9336,1.490479 0.5058,0.640067 0.9019,1.412161 1.1884,2.316284 0.2864,0.904144 0.4296,1.870939 0.4297,2.900391 -1e-4,2.443852 -0.6043,4.332685 -1.8128,5.666504 -1.2085,1.3338216 -2.6587,2.0007317 -4.3506,2.000732 -1.6829,-3e-7 -3.0033,-0.7027177 -3.9612,-2.108154 z m -0.027,-7.2375484 c 0,1.709803 0.2327,2.945154 0.6982,3.706054 0.7609,1.244306 1.7904,1.866457 3.0884,1.866455 1.0563,2e-6 1.9694,-0.458778 2.7393,-1.376342 0.7698,-0.917558 1.1547,-2.284948 1.1548,-4.102173 -10e-5,-1.86197 -0.3693,-3.236074 -1.1078,-4.122315 -0.7386,-0.886218 -1.6315,-1.329333 -2.6789,-1.329345 -1.0563,1.2e-5 -1.9694,0.458793 -2.7392,1.376342 -0.7699,0.917572 -1.1548,2.244679 -1.1548,3.981324 z"
         style=""
         id="path6849" />
    </g>
    <g
       style="font-size:27.5px;font-style:normal;font-weight:normal;line-height:125%;letter-spacing:0px;word-spacing:0px;fill:#000000;fill-opacity:1;stroke:none;font-family:Sans"
       id="text2993">
      <path
         d="m -1266.1012,37.139317 2.3767,0.308837 c -0.2596,1.638187 -0.9243,2.920535 -1.994,3.847046 -1.0698,0.926514 -2.3834,1.389771 -3.941,1.389771 -1.9515,0 -3.5204,-0.637817 -4.7065,-1.913452 -1.1861,-1.275632 -1.7791,-3.10404 -1.7791,-5.48523 0,-1.539705 0.2551,-2.886953 0.7653,-4.041748 0.5103,-1.154773 1.2869,-2.020861 2.3298,-2.598266 1.0428,-0.577379 2.1775,-0.866075 3.4039,-0.866089 1.5486,1.4e-5 2.8153,0.391656 3.8,1.174926 0.9847,0.783298 1.6158,1.89556 1.8933,3.336792 l -2.3498,0.362549 c -0.2238,-0.957834 -0.6199,-1.678455 -1.1884,-2.161865 -0.5684,-0.483386 -1.2555,-0.725085 -2.0611,-0.725098 -1.2175,1.3e-5 -2.2067,0.436414 -2.9676,1.309204 -0.7609,0.872814 -1.1413,2.253631 -1.1413,4.142457 0,1.915695 0.367,3.307702 1.1011,4.176025 0.734,0.868329 1.6919,1.302492 2.8735,1.30249 0.9489,2e-6 1.7411,-0.290932 2.3767,-0.872803 0.6356,-0.581865 1.0384,-1.477046 1.2085,-2.685546 z"
         style=""
         id="path6846" />
    </g>
    <g
       style="font-size:27.5px;font-style:normal;font-weight:normal;line-height:125%;letter-spacing:0px;word-spacing:0px;fill:#000000;fill-opacity:1;stroke:none;font-family:Sans"
       id="text2997">
      <path
         d="m -1265.9938,99.037811 0,-1.799316 c -0.9041,1.414388 -2.2335,2.121582 -3.988,2.121582 -1.1369,0 -2.182,-0.313314 -3.1354,-0.939942 -0.9534,-0.626626 -1.6919,-1.501666 -2.2156,-2.625122 -0.5236,-1.123449 -0.7855,-2.414748 -0.7855,-3.873901 0,-1.423331 0.2372,-2.71463 0.7117,-3.873901 0.4744,-1.159249 1.1861,-2.047717 2.135,-2.665406 0.9489,-0.617661 2.0097,-0.926499 3.1824,-0.926513 0.8593,1.4e-5 1.6247,0.181289 2.2961,0.543823 0.6714,0.362562 1.2174,0.834771 1.6382,1.416626 l 0,-7.062988 2.4036,0 0,19.685058 z m -7.6404,-7.116699 c 0,1.826177 0.385,3.191329 1.1548,4.095459 0.7699,0.904136 1.6785,1.356203 2.7259,1.356201 1.0563,2e-6 1.9537,-0.431923 2.6922,-1.295776 0.7385,-0.863847 1.1078,-2.182002 1.1078,-3.954468 0,-1.951488 -0.376,-3.383779 -1.1279,-4.296875 -0.752,-0.913074 -1.6785,-1.369616 -2.7796,-1.369629 -1.0742,1.3e-5 -1.9716,0.438652 -2.6922,1.315918 -0.7206,0.877289 -1.081,2.260344 -1.081,4.14917 z"
         style=""
         id="path6843" />
    </g>
    <g
       style="font-size:27.5px;font-style:normal;font-weight:normal;line-height:125%;letter-spacing:0px;word-spacing:0px;fill:#000000;fill-opacity:1;stroke:none;font-family:Sans"
       id="text3001">
      <path
         d="m -1265.9401,146.0181 2.4976,0.30883 c -0.3939,1.45915 -1.1235,2.59156 -2.1887,3.39722 -1.0653,0.80567 -2.426,1.2085 -4.0821,1.2085 -2.0857,0 -3.7396,-0.6423 -4.9615,-1.92688 -1.2219,-1.28459 -1.8329,-3.08614 -1.8329,-5.40467 0,-2.39907 0.6177,-4.26105 1.853,-5.58593 1.2354,-1.32486 2.8378,-1.98729 4.8072,-1.98731 1.9067,2e-5 3.4643,0.64902 4.6728,1.94702 1.2085,1.29803 1.8127,3.1242 1.8128,5.47852 -10e-5,0.14324 -0,0.35808 -0.013,0.64453 l -10.6347,0 c 0.09,1.56657 0.5326,2.76612 1.3293,3.59863 0.7967,0.83253 1.7904,1.24878 2.981,1.24878 0.8862,0 1.6426,-0.23274 2.2693,-0.69824 0.6266,-0.46549 1.1234,-1.20849 1.4904,-2.229 z m -7.9358,-3.90747 7.9627,0 c -0.1074,-1.19954 -0.4118,-2.0992 -0.9131,-2.69898 -0.7699,-0.93098 -1.768,-1.39647 -2.9944,-1.39648 -1.11,10e-6 -2.0432,0.37151 -2.7997,1.1145 -0.7564,0.74301 -1.1749,1.73666 -1.2555,2.98096 z"
         style=""
         id="path6840" />
    </g>
    <g
       style="font-size:27.5px;font-style:normal;font-weight:normal;line-height:125%;letter-spacing:0px;word-spacing:0px;fill:#000000;fill-opacity:1;stroke:none;font-family:Sans"
       id="text3013">
      <path
         d="m -1271.9691,207.62119 0,-12.38038 -2.135,0 0,-1.87988 2.135,0 0,-1.51733 c 0,-0.95783 0.085,-1.6695 0.2551,-2.13501 0.2328,-0.62661 0.6423,-1.13463 1.2286,-1.52405 0.5864,-0.38938 1.4077,-0.58409 2.464,-0.58411 0.6804,2e-5 1.4323,0.0806 2.2559,0.2417 l -0.3626,2.10816 c -0.5013,-0.0895 -0.9757,-0.13426 -1.4233,-0.13428 -0.734,2e-5 -1.2533,0.15667 -1.5576,0.46997 -0.3044,0.31333 -0.4566,0.89967 -0.4566,1.75903 l 0,1.31592 2.7796,0 0,1.87988 -2.7796,0 0,12.38038 z"
         style=""
         id="path6837" />
    </g>
    <g
       style="font-size:27.5px;font-style:normal;font-weight:normal;line-height:125%;letter-spacing:0px;word-spacing:0px;fill:#000000;fill-opacity:1;stroke:none;font-family:Sans"
       id="text3017">
      <path
         d="m -1275.7356,260.05313 2.3499,0.34912 c 0.098,0.7251 0.3715,1.25325 0.819,1.58447 0.5998,0.44759 1.4189,0.67139 2.4573,0.67139 1.119,0 1.9828,-0.2238 2.5916,-0.67139 0.6087,-0.44759 1.0205,-1.07422 1.2353,-1.87988 0.1253,-0.49235 0.1835,-1.52628 0.1746,-3.1018 -1.0563,1.2443 -2.3723,1.86645 -3.9478,1.86645 -1.9604,0 -3.4778,-0.70719 -4.552,-2.12158 -1.0742,-1.41439 -1.6113,-3.11075 -1.6113,-5.08911 0,-1.36067 0.2462,-2.61616 0.7385,-3.76648 0.4924,-1.1503 1.2063,-2.03877 2.1418,-2.66541 0.9354,-0.62661 2.0343,-0.93992 3.2965,-0.93994 1.6829,2e-5 3.0704,0.68035 4.1626,2.04102 l 0,-1.71875 2.229,0 0,12.32666 c 0,2.22005 -0.2261,3.79333 -0.6781,4.71985 -0.4521,0.92651 -1.1683,1.65832 -2.1485,2.19543 -0.9802,0.5371 -2.1865,0.80566 -3.6187,0.80566 -1.7009,0 -3.075,-0.38269 -4.1224,-1.14807 -1.0473,-0.76538 -1.5531,-1.91793 -1.5173,-3.45764 z m 2.0007,-8.56689 c 0,1.87093 0.3715,3.23608 1.1145,4.09546 0.743,0.85937 1.674,1.28906 2.793,1.28906 1.11,0 2.041,-0.42745 2.793,-1.28235 0.7519,-0.8549 1.1279,-2.19543 1.1279,-4.02161 0,-1.74559 -0.3872,-3.06151 -1.1615,-3.94775 -0.7743,-0.88622 -1.7076,-1.32933 -2.7997,-1.32935 -1.0742,2e-5 -1.9873,0.43642 -2.7392,1.30921 -0.752,0.87281 -1.128,2.16859 -1.128,3.88733 z"
         style=""
         id="path6834" />
    </g>
    <g
       style="font-size:27.5px;font-style:normal;font-weight:normal;line-height:125%;letter-spacing:0px;word-spacing:0px;fill:#000000;fill-opacity:1;stroke:none;font-family:Sans"
       id="text3021">
      <path
         d="m -1275.7423,321.01172 0,-19.68506 2.417,0 0,7.06299 c 1.1279,-1.30695 2.5512,-1.96044 4.27,-1.96045 1.0563,1e-5 1.9739,0.20814 2.7527,0.62439 0.7788,0.41627 1.336,0.99143 1.6717,1.72546 0.3357,0.73406 0.5036,1.79933 0.5036,3.1958 l 0,9.03687 -2.417,0 0,-9.03687 c 0,-1.20848 -0.2619,-2.088 -0.7855,-2.63855 -0.5237,-0.55052 -1.2645,-0.82579 -2.2223,-0.8258 -0.7162,1e-5 -1.3898,0.18576 -2.0209,0.55725 -0.6311,0.37151 -1.0809,0.87505 -1.3495,1.51062 -0.2685,0.63559 -0.4028,1.51287 -0.4028,2.63184 l 0,7.80151 z"
         style=""
         id="path6831" />
    </g>
    <text
       xml:space="preserve"
       style="font-size:27.5px;font-style:normal;font-weight:normal;line-height:125%;letter-spacing:0px;word-spacing:0px;fill:#000000;fill-opacity:1;stroke:none;font-family:Sans"
       x="-1137.4318"
       y="325.05234"
       id="text3025"
       sodipodi:linespacing="125%"><tspan
         sodipodi:role="line"
         id="tspan3027"
         x="-1137.4318"
         y="325.05234" /></text>
    <g
       style="font-size:29.44688797px;font-style:normal;font-weight:normal;line-height:125%;letter-spacing:0px;word-spacing:0px;fill:#000000;fill-opacity:1;stroke:#000000;stroke-width:1.22695363;stroke-opacity:1;font-family:Sans"
       id="text3915">
      <path
         d="m -1082.2062,131.76118 0,2.48746 -11.3158,0 7.1892,7.64928 -7.1892,8.45448 11.9053,0 0,2.48746 -14.9247,0 0,-2.90443 6.8872,-8.03751 -6.8872,-7.33296 0,-2.80378 z"
         style=""
         id="path6814" />
      <path
         d="m -1073.3066,158.72924 -1.6823,0 0,-10.71994 c -0.405,0.38631 -0.9362,0.77261 -1.5935,1.15891 -0.6574,0.38631 -1.2477,0.67604 -1.7711,0.86918 l 0,-1.62621 c 0.9408,-0.44237 1.7633,-0.97821 2.4674,-1.60753 0.704,-0.62929 1.2025,-1.23989 1.4953,-1.83183 l 1.0842,0 z"
         style="font-size:19.14074707px;baseline-shift:sub"
         id="path6816" />
    </g>
    <g
       style="font-size:24px;font-style:normal;font-weight:normal;line-height:125%;letter-spacing:0px;word-spacing:0px;fill:#000000;fill-opacity:1;stroke:#000000;stroke-opacity:1;font-family:Sans"
       id="text3915-5-0">
      <path
         d="m -1192.9994,211.45122 2.2734,0.57422 c -0.4765,1.86719 -1.334,3.29101 -2.5722,4.27148 -1.2383,0.98047 -2.752,1.4707 -4.541,1.4707 -1.8516,0 -3.3575,-0.37695 -4.5176,-1.13086 -1.1602,-0.7539 -2.043,-1.8457 -2.6484,-3.27539 -0.6055,-1.42968 -0.9083,-2.96483 -0.9083,-4.60546 0,-1.78906 0.3418,-3.3496 1.0254,-4.68165 0.6836,-1.33201 1.6563,-2.34373 2.918,-3.03515 1.2617,-0.69139 2.6504,-1.03709 4.166,-1.03711 1.7188,2e-5 3.1641,0.43752 4.336,1.3125 1.1718,0.87501 1.9882,2.10548 2.4492,3.69141 l -2.2383,0.52734 c -0.3985,-1.24999 -0.9766,-2.16014 -1.7344,-2.73047 -0.7578,-0.5703 -1.7109,-0.85545 -2.8594,-0.85547 -1.3203,2e-5 -2.4238,0.31642 -3.3105,0.94922 -0.8867,0.63283 -1.5098,1.48244 -1.8691,2.54883 -0.3594,1.06642 -0.5391,2.16602 -0.5391,3.29883 0,1.46094 0.2129,2.73633 0.6387,3.82617 0.4257,1.08985 1.0879,1.9043 1.9863,2.44336 0.8984,0.53906 1.8711,0.80859 2.918,0.80859 1.2734,0 2.3515,-0.36718 3.2343,-1.10156 0.8828,-0.73437 1.4805,-1.82422 1.793,-3.26953 z"
         style=""
         id="path6809" />
      <path
         d="m -1188.183,217.47466 0,-17.17969 2.1094,0 0,6.16406 c 0.9844,-1.14061 2.2265,-1.71092 3.7266,-1.71094 0.9218,2e-5 1.7226,0.18166 2.4023,0.54492 0.6797,0.3633 1.166,0.86525 1.459,1.50586 0.2929,0.64064 0.4394,1.57033 0.4394,2.78907 l 0,7.88672 -2.1093,0 0,-7.88672 c 0,-1.05468 -0.2286,-1.82226 -0.6856,-2.30274 -0.457,-0.48046 -1.1035,-0.72069 -1.9394,-0.7207 -0.625,1e-5 -1.2129,0.16212 -1.7637,0.48633 -0.5508,0.32423 -0.9434,0.76368 -1.1777,1.31836 -0.2344,0.55469 -0.3516,1.32032 -0.3516,2.29687 l 0,6.8086 z"
         style=""
         id="path6811" />
    </g>
    <g
       style="font-size:24px;font-style:normal;font-weight:normal;line-height:125%;letter-spacing:0px;word-spacing:0px;fill:#000000;fill-opacity:1;stroke:#000000;stroke-opacity:1;font-family:Sans"
       id="text3915-5-0-7">
      <path
         d="m -1197.1597,-0.85891521 0,-17.17968779 3.4219,0 4.0664,12.1640628 c 0.375,1.1328164 0.6484,1.9804718 0.8203,2.5429687 0.1953,-0.6249969 0.5,-1.5429647 0.9141,-2.7539062 l 4.1133,-11.9531253 3.0586,0 0,17.17968779 -2.1914,0 0,-14.37890579 -4.9922,14.37890579 -2.0508,0 -4.9688,-14.62499979 0,14.62499979 z"
         style=""
         id="path6824" />
      <path
         d="m -1169.2222,-2.3940715 c -0.7812,0.6640634 -1.5332,1.1328129 -2.2558,1.40625004 -0.7227,0.27343736 -1.4981,0.41015597 -2.3262,0.41015625 -1.3672,-2.8e-7 -2.418,-0.33398432 -3.1523,-1.00195309 -0.7344,-0.6679674 -1.1016,-1.5214822 -1.1016,-2.5605469 0,-0.6093711 0.1387,-1.1660112 0.416,-1.6699219 0.2774,-0.5039008 0.6406,-0.9081973 1.0899,-1.2128906 0.4492,-0.304681 0.955,-0.5351496 1.5175,-0.6914063 0.4141,-0.109368 1.0391,-0.2148366 1.875,-0.3164062 1.7031,-0.2031176 2.9571,-0.4453049 3.7618,-0.7265625 0.01,-0.2890543 0.012,-0.4726479 0.012,-0.5507813 0,-0.859366 -0.1993,-1.464834 -0.5977,-1.816406 -0.5391,-0.476552 -1.3398,-0.714833 -2.4023,-0.714844 -0.9922,1.1e-5 -1.7246,0.173839 -2.1973,0.521484 -0.4727,0.347667 -0.8223,0.962901 -1.0488,1.8457035 l -2.0625,-0.28125 c 0.1875,-0.8828025 0.4961,-1.5956925 0.9258,-2.1386715 0.4296,-0.542958 1.0507,-0.960926 1.8632,-1.253907 0.8125,-0.292956 1.7539,-0.43944 2.8243,-0.439453 1.0624,1.3e-5 1.9257,0.125013 2.5898,0.375 0.6641,0.250012 1.1523,0.564465 1.4648,0.94336 0.3125,0.378917 0.5313,0.857432 0.6563,1.435547 0.07,0.359384 0.1055,1.007821 0.1055,1.945312 l 0,2.8125 c 0,1.9609408 0.045,3.2011739 0.1347,3.7207032 0.09,0.5195322 0.2676,1.0175786 0.5332,1.49414059 l -2.2031,0 c -0.2188,-0.43749959 -0.3594,-0.94921779 -0.4219,-1.53515629 z m -0.1757,-4.7109375 c -0.7657,0.312506 -1.9141,0.5781307 -3.4454,0.796875 -0.8672,0.1250054 -1.4804,0.2656302 -1.8398,0.421875 -0.3594,0.1562549 -0.6367,0.3847703 -0.832,0.6855469 -0.1954,0.3007853 -0.293,0.6347693 -0.293,1.0019531 0,0.5625028 0.2129,1.0312523 0.6387,1.40625 0.4257,0.3750016 1.0488,0.5625014 1.8691,0.5625 0.8125,1.4e-6 1.5352,-0.1777328 2.168,-0.5332031 0.6328,-0.3554665 1.0976,-0.8417941 1.3945,-1.4589844 0.2266,-0.4765586 0.3398,-1.1796829 0.3399,-2.109375 z"
         style=""
         id="path6826" />
      <path
         d="m -1163.9956,-15.589384 0,-2.449219 2.1094,0 0,2.449219 z m -2.6719,19.5585938 0.3985,-1.7929688 c 0.4218,0.1093719 0.7539,0.1640593 0.9961,0.1640625 0.4296,-3.2e-6 0.7499,-0.1425811 0.9609,-0.4277343 0.2109,-0.2851588 0.3164,-0.99804868 0.3164,-2.13867191 l 0,-13.07812529 2.1094,0 0,13.12500029 c 0,1.53124781 -0.1993,2.59765301 -0.5977,3.19921871 -0.5078,0.7812454 -1.3516,1.17187 -2.5312,1.171875 -0.5703,-5e-6 -1.1211,-0.074224 -1.6524,-0.2226562 z"
         style=""
         id="path6828" />
    </g>
    <g
       style="font-size:29.44688797px;font-style:normal;font-weight:normal;line-height:125%;letter-spacing:0px;word-spacing:0px;fill:#000000;fill-opacity:1;stroke:#000000;stroke-width:1.22695363;stroke-opacity:1;font-family:Sans"
       id="text3915-5-2-6">
      <path
         d="m -1066.3125,-88.568915 0,2.487457 -11.3158,0 7.1892,7.649289 -7.1892,8.454478 11.9053,0 0,2.487457 -14.9248,0 0,-2.90443 6.8873,-8.037505 -6.8873,-7.332965 0,-2.803781 z"
         style="fill:#000000;stroke:#000000"
         id="path6819" />
      <path
         d="m -1063.7496,-68.358064 c 0,-1.619977 0.1667,-2.923752 0.5,-3.911329 0.3334,-0.987556 0.8287,-1.74926 1.4861,-2.285114 0.6573,-0.535828 1.4844,-0.803748 2.4813,-0.803762 0.7353,1.4e-5 1.3801,0.147993 1.9347,0.443938 0.5545,0.295972 1.0125,0.722776 1.3739,1.280412 0.3613,0.55766 0.6448,1.236807 0.8504,2.037443 0.2056,0.800655 0.3085,1.880125 0.3085,3.238412 0,1.607529 -0.1652,2.905073 -0.4954,3.892637 -0.3302,0.98757 -0.824,1.750832 -1.4813,2.289787 -0.6574,0.538957 -1.4876,0.808435 -2.4908,0.808435 -1.3209,0 -2.3583,-0.473534 -3.1122,-1.420602 -0.9035,-1.140218 -1.3552,-2.996969 -1.3552,-5.570257 z m 1.729,0 c 0,2.249292 0.2633,3.746219 0.7898,4.490786 0.5265,0.744571 1.176,1.116856 1.9486,1.116855 0.7726,10e-7 1.4222,-0.373841 1.9487,-1.121528 0.5265,-0.747683 0.7897,-2.243052 0.7897,-4.486113 0,-2.255509 -0.2632,-3.753993 -0.7897,-4.495459 -0.5265,-0.741442 -1.1823,-1.112169 -1.9673,-1.112182 -0.7727,1.3e-5 -1.3895,0.327125 -1.8506,0.981338 -0.5794,0.834925 -0.8692,2.377025 -0.8692,4.626303 z"
         style="font-size:19.14074707px;baseline-shift:sub"
         id="path6821" />
    </g>
    <g
       style="font-size:24px;font-style:normal;font-weight:normal;line-height:125%;letter-spacing:0px;word-spacing:0px;fill:#000000;fill-opacity:1;stroke:#000000;stroke-opacity:1;font-family:Sans"
       id="text4536">
      <path
         d="m -795.93878,220.60126 -6.34766,-20.74219 3.63281,0 3.30079,11.97266 1.23046,4.45312 c 0.0521,-0.22135 0.41015,-1.64713 1.07422,-4.27734 l 3.30078,-12.14844 3.61329,0 3.10546,12.03125 1.03516,3.96484 1.19141,-4.0039 3.55468,-11.99219 3.41797,0 -6.48437,20.74219 -3.65235,0 -3.30078,-12.42188 -0.80078,-3.53515 -4.19922,15.95703 z"
         style="font-size:40px;fill:#000000;stroke:#000000"
         id="path6804" />
      <path
         d="m -771.79618,212.64302 0,-2.65335 2.28519,0 0,2.65335 z m -2.89457,21.18878 0.43165,-1.94241 c 0.45703,0.11849 0.81674,0.17773 1.07911,0.17774 0.4655,-1e-5 0.81251,-0.15447 1.04103,-0.46339 0.22852,-0.30893 0.34278,-1.08123 0.34278,-2.31693 l 0,-14.16816 2.28519,0 0,14.21895 c -10e-6,1.65887 -0.21583,2.81416 -0.64747,3.46586 -0.55014,0.84637 -1.46422,1.26955 -2.74223,1.26955 -0.61784,0 -1.21453,-0.0804 -1.79006,-0.24121 z"
         style="font-size:65.00091553%;baseline-shift:sub;fill:#000000;stroke:#000000"
         id="path6806" />
    </g>
    <path
       style="fill:none;stroke:#000000;stroke-width:1px;stroke-linecap:butt;stroke-linejoin:miter;stroke-opacity:1;marker-end:url(#Arrow1Lend)"
       d="m -1258.6501,311.16919 33.3351,0"
       id="path4361"
       inkscape:connector-curvature="0"
       sodipodi:nodetypes="cc" />
    <g
       style="font-size:27.5px;font-style:normal;font-weight:normal;line-height:125%;letter-spacing:0px;word-spacing:0px;fill:#000000;fill-opacity:1;stroke:none;font-family:Sans"
       id="text3021-1">
      <path
         d="m -1222.0313,318.26172 0,-19.68506 2.417,0 0,7.06299 c 1.128,-1.30695 2.5513,-1.96044 4.2701,-1.96045 1.0563,1e-5 1.9738,0.20814 2.7526,0.62439 0.7788,0.41627 1.3361,0.99143 1.6718,1.72546 0.3357,0.73406 0.5035,1.79933 0.5035,3.1958 l 0,9.03687 -2.417,0 0,-9.03687 c 0,-1.20848 -0.2618,-2.088 -0.7855,-2.63855 -0.5237,-0.55052 -1.2644,-0.82579 -2.2223,-0.8258 -0.7161,1e-5 -1.3897,0.18576 -2.0208,0.55725 -0.6311,0.37151 -1.081,0.87505 -1.3495,1.51062 -0.2686,0.63559 -0.4029,1.51287 -0.4029,2.63184 l 0,7.80151 z"
         style=""
         id="path6680" />
      <path
         d="m -1201.8768,323.76172 -1.5711,0 0,-10.01119 c -0.3782,0.36077 -0.8742,0.72154 -1.4881,1.08229 -0.6139,0.36077 -1.1652,0.63135 -1.654,0.81172 l 0,-1.5187 c 0.8786,-0.41312 1.6467,-0.91354 2.3042,-1.50124 0.6575,-0.58768 1.123,-1.15792 1.3965,-1.71072 l 1.0125,0 z"
         style="font-size:65.00091553%;baseline-shift:sub"
         id="path6682" />
      <path
         d="m -1176.4305,306.68701 -12.9981,0 0,-2.25586 12.9981,0 z m 0,5.97534 -12.9981,0 0,-2.25586 12.9981,0 z"
         style=""
         id="path6684" />
      <path
         d="m -1165.4601,318.26172 0,-19.68506 2.417,0 0,7.06299 c 1.128,-1.30695 2.5513,-1.96044 4.27,-1.96045 1.0564,1e-5 1.9739,0.20814 2.7527,0.62439 0.7788,0.41627 1.3361,0.99143 1.6718,1.72546 0.3357,0.73406 0.5035,1.79933 0.5035,3.1958 l 0,9.03687 -2.417,0 0,-9.03687 c 0,-1.20848 -0.2618,-2.088 -0.7855,-2.63855 -0.5237,-0.55052 -1.2644,-0.82579 -2.2223,-0.8258 -0.7161,1e-5 -1.3898,0.18576 -2.0209,0.55725 -0.6311,0.37151 -1.0809,0.87505 -1.3494,1.51062 -0.2686,0.63559 -0.4029,1.51287 -0.4029,2.63184 l 0,7.80151 z"
         style=""
         id="path6686" />
      <path
         d="m -1145.0768,315.07935 0,-5.39795 -5.3576,0 0,-2.25586 5.3576,0 0,-5.35767 2.2827,0 0,5.35767 5.3577,0 0,2.25586 -5.3577,0 0,5.39795 z"
         style=""
         id="path6688" />
      <path
         d="m -1119.7386,311.35986 2.6049,0.65796 c -0.546,2.13949 -1.5285,3.77096 -2.9473,4.89441 -1.4189,1.12346 -3.1533,1.68518 -5.2033,1.68518 -2.1216,0 -3.847,-0.43192 -5.1764,-1.29577 -1.3293,-0.86385 -2.3409,-2.11487 -3.0346,-3.75306 -0.6938,-1.63817 -1.0407,-3.3972 -1.0407,-5.2771 0,-2.04995 0.3916,-3.83808 1.1749,-5.36438 0.7833,-1.52626 1.8978,-2.68552 3.3435,-3.47778 1.4457,-0.79222 3.0369,-1.18833 4.7736,-1.18835 1.9694,2e-5 3.6255,0.50132 4.9683,1.5039 1.3427,1.00262 2.2782,2.41254 2.8064,4.22974 l -2.5647,0.60425 c -0.4566,-1.43228 -1.119,-2.47517 -1.9873,-3.12866 -0.8684,-0.65347 -1.9605,-0.98021 -3.2764,-0.98023 -1.5129,2e-5 -2.7773,0.36257 -3.7933,1.08765 -1.0161,0.72511 -1.73,1.69862 -2.1418,2.92053 -0.4118,1.22194 -0.6177,2.4819 -0.6176,3.77991 -10e-5,1.674 0.2439,3.13538 0.7318,4.38415 0.4878,1.24879 1.2465,2.18201 2.276,2.79968 1.0294,0.61768 2.1439,0.92652 3.3435,0.92652 1.4591,0 2.6945,-0.42074 3.706,-1.26221 1.0116,-0.84147 1.6964,-2.09024 2.0545,-3.74634 z"
         style=""
         id="path6690" />
      <path
         d="m -1114.2198,318.26172 0,-19.68506 2.417,0 0,7.06299 c 1.1279,-1.30695 2.5512,-1.96044 4.27,-1.96045 1.0563,1e-5 1.9738,0.20814 2.7527,0.62439 0.7788,0.41627 1.336,0.99143 1.6717,1.72546 0.3357,0.73406 0.5035,1.79933 0.5036,3.1958 l 0,9.03687 -2.417,0 0,-9.03687 c 0,-1.20848 -0.2619,-2.088 -0.7856,-2.63855 -0.5236,-0.55052 -1.2644,-0.82579 -2.2222,-0.8258 -0.7162,1e-5 -1.3898,0.18576 -2.0209,0.55725 -0.6311,0.37151 -1.081,0.87505 -1.3495,1.51062 -0.2686,0.63559 -0.4028,1.51287 -0.4028,2.63184 l 0,7.80151 z"
         style=""
         id="path6692" />
    </g>
    <path
       style="fill:none;stroke:#000000;stroke-width:1;stroke-linecap:butt;stroke-linejoin:miter;stroke-miterlimit:4;stroke-opacity:1;stroke-dasharray:4, 4;stroke-dashoffset:0;marker-end:url(#Arrow1Lend)"
       d="m -1189.9597,225.04724 28.2842,62.62947"
       id="path4361-9"
       inkscape:connector-curvature="0"
       sodipodi:nodetypes="cc" />
    <path
       style="fill:none;stroke:#000000;stroke-width:1;stroke-linecap:butt;stroke-linejoin:miter;stroke-miterlimit:4;stroke-opacity:1;stroke-dasharray:4, 4;stroke-dashoffset:0;marker-end:url(#Arrow1Lend)"
       d="m -1259.1551,143.72996 152.533,1e-5"
       id="path4361-9-2"
       inkscape:connector-curvature="0"
       sodipodi:nodetypes="cc" />
    <path
       style="fill:none;stroke:#000000;stroke-width:1;stroke-linecap:butt;stroke-linejoin:miter;stroke-miterlimit:4;stroke-opacity:1;stroke-dasharray:4, 4;stroke-dashoffset:0;marker-end:url(#Arrow1Lend)"
       d="m -1261.1754,154.33657 55.5584,41.41626"
       id="path4361-9-2-1"
       inkscape:connector-curvature="0"
       sodipodi:nodetypes="cc" />
    <path
       style="fill:none;stroke:#000000;stroke-width:1;stroke-linecap:butt;stroke-linejoin:miter;stroke-miterlimit:4;stroke-opacity:1;stroke-dasharray:4, 4;stroke-dashoffset:0;marker-end:url(#Arrow1Lend)"
       d="m -1257.1348,202.82389 47.4771,6.06092"
       id="path4361-9-2-15"
       inkscape:connector-curvature="0"
       sodipodi:nodetypes="cc" />
    <path
       style="fill:none;stroke:#000000;stroke-width:1;stroke-linecap:butt;stroke-linejoin:miter;stroke-miterlimit:4;stroke-opacity:1;stroke-dasharray:4, 4;stroke-dashoffset:0;marker-end:url(#Arrow1Lend)"
       d="m -1250.0638,255.35182 42.4264,-31.31473"
       id="path4361-9-2-6"
       inkscape:connector-curvature="0"
       sodipodi:nodetypes="cc" />
    <path
       style="fill:none;stroke:#000000;stroke-width:1px;stroke-linecap:butt;stroke-linejoin:miter;stroke-opacity:1;marker-end:url(#Arrow1Lend)"
       d="m -1098.6221,311.16919 33.3351,0"
       id="path4361-2"
       inkscape:connector-curvature="0"
       sodipodi:nodetypes="cc" />
    <g
       style="font-size:27.5px;font-style:normal;font-weight:normal;line-height:125%;letter-spacing:0px;word-spacing:0px;fill:#000000;fill-opacity:1;stroke:none;font-family:Sans"
       id="text3021-1-3">
      <path
         d="m -1059.7863,318.42957 0,-19.68506 2.417,0 0,7.06299 c 1.128,-1.30696 2.5513,-1.96044 4.2701,-1.96045 1.0563,10e-6 1.9738,0.20814 2.7526,0.62439 0.7788,0.41627 1.3361,0.99142 1.6718,1.72546 0.3357,0.73406 0.5035,1.79933 0.5035,3.1958 l 0,9.03687 -2.417,0 0,-9.03687 c 0,-1.20849 -0.2618,-2.088 -0.7855,-2.63855 -0.5237,-0.55052 -1.2644,-0.82579 -2.2223,-0.82581 -0.7161,2e-5 -1.3897,0.18577 -2.0208,0.55726 -0.6312,0.37151 -1.081,0.87505 -1.3495,1.51062 -0.2686,0.63559 -0.4029,1.51286 -0.4029,2.63183 l 0,7.80152 z"
         style=""
         id="path6663" />
      <path
         d="m -1037.2927,322.4196 0,1.50997 -8.4575,0 c -0.012,-0.37822 0.049,-0.7419 0.1833,-1.09102 0.2152,-0.57606 0.56,-1.14339 1.0342,-1.70199 0.4743,-0.5586 1.1594,-1.20448 2.0555,-1.93765 1.3907,-1.14047 2.3304,-2.04384 2.8192,-2.71009 0.4888,-0.66624 0.7332,-1.29612 0.7332,-1.88965 0,-0.6226 -0.2226,-1.14774 -0.6677,-1.57543 -0.4452,-0.42767 -1.0256,-0.64151 -1.7413,-0.64152 -0.7564,10e-6 -1.3616,0.22695 -1.8154,0.6808 -0.4539,0.45387 -0.6838,1.0823 -0.6896,1.88528 l -1.6147,-0.16584 c 0.1106,-1.20447 0.5266,-2.12238 1.2481,-2.75373 0.7216,-0.63132 1.6904,-0.94699 2.9065,-0.947 1.2278,1e-5 2.1995,0.34041 2.9152,1.02119 0.7157,0.68081 1.0736,1.52453 1.0736,2.53117 0,0.51206 -0.1048,1.01538 -0.3142,1.50997 -0.2095,0.4946 -0.5572,1.01538 -1.043,1.56233 -0.4859,0.54697 -1.2933,1.29759 -2.4221,2.25187 -0.9426,0.79135 -1.5478,1.32813 -1.8155,1.61034 -0.2676,0.28221 -0.4887,0.56588 -0.6633,0.851 z"
         style="font-size:65.00091553%;baseline-shift:sub"
         id="path6665" />
      <path
         d="m -1014.1855,306.85486 -12.9981,0 0,-2.25586 12.9981,0 z m 0,5.97534 -12.9981,0 0,-2.25586 12.9981,0 z"
         style=""
         id="path6667" />
      <path
         d="m -1003.2151,318.42957 0,-19.68506 2.417,0 0,7.06299 c 1.12795,-1.30696 2.55129,-1.96044 4.27004,-1.96045 1.05631,10e-6 1.97387,0.20814 2.75269,0.62439 0.7788,0.41627 1.33605,0.99142 1.67175,1.72546 0.33568,0.73406 0.50353,1.79933 0.50354,3.1958 l 0,9.03687 -2.41699,0 0,-9.03687 c -10e-6,-1.20849 -0.26185,-2.088 -0.78552,-2.63855 -0.52369,-0.55052 -1.26446,-0.82579 -2.22229,-0.82581 -0.71616,2e-5 -1.38978,0.18577 -2.02088,0.55726 -0.63111,0.37151 -1.08094,0.87505 -1.34944,1.51062 -0.2686,0.63559 -0.4029,1.51286 -0.4029,2.63183 l 0,7.80152 z"
         style=""
         id="path6669" />
      <path
         d="m -983.06062,323.92957 -1.57107,0 0,-10.01119 c -0.37822,0.36077 -0.87427,0.72153 -1.48815,1.08229 -0.61388,0.36077 -1.16521,0.63134 -1.65398,0.81172 l 0,-1.5187 c 0.87863,-0.41312 1.64671,-0.91354 2.30423,-1.50124 0.65752,-0.58769 1.12302,-1.15793 1.3965,-1.71072 l 1.01247,0 z"
         style="font-size:65.00091553%;baseline-shift:sub"
         id="path6671" />
      <path
         d="m -972.88168,315.24719 0,-5.39795 -5.35766,0 0,-2.25586 5.35766,0 0,-5.35766 2.28272,0 0,5.35766 5.35767,0 0,2.25586 -5.35767,0 0,5.39795 z"
         style=""
         id="path6673" />
      <path
         d="m -948.33578,298.74451 0,2.32299 -10.56762,0 6.71386,7.14356 -6.71386,7.89551 11.11816,0 0,2.323 -13.93799,0 0,-2.71241 6.43189,-7.5061 -6.43189,-6.84814 0,-2.61841 z"
         style=""
         id="path6675" />
      <path
         d="m -940.02459,323.92957 -1.57106,0 0,-10.01119 c -0.37823,0.36077 -0.87428,0.72153 -1.48815,1.08229 -0.61389,0.36077 -1.16521,0.63134 -1.65399,0.81172 l 0,-1.5187 c 0.87863,-0.41312 1.64671,-0.91354 2.30423,-1.50124 0.65752,-0.58769 1.12302,-1.15793 1.39651,-1.71072 l 1.01246,0 z"
         style="font-size:65.00091553%;baseline-shift:sub"
         id="path6677" />
    </g>
    <path
       style="fill:none;stroke:#000000;stroke-width:1;stroke-linecap:butt;stroke-linejoin:miter;stroke-miterlimit:4;stroke-opacity:1;stroke-dasharray:4, 4;stroke-dashoffset:0;marker-end:url(#Arrow1Lend)"
       d="m -1078.3379,167.71068 53.5381,128.28938"
       id="path4361-9-2-6-7"
       inkscape:connector-curvature="0"
       sodipodi:nodetypes="cc" />
    <path
       style="fill:none;stroke:#000000;stroke-width:1px;stroke-linecap:butt;stroke-linejoin:miter;stroke-opacity:1;marker-end:url(#Arrow1Lend)"
       d="m -932.87591,311.16919 33.3351,0"
       id="path4361-2-9"
       inkscape:connector-curvature="0"
       sodipodi:nodetypes="cc" />
    <g
       style="font-size:27.5px;font-style:normal;font-weight:normal;line-height:125%;letter-spacing:0px;word-spacing:0px;fill:#000000;fill-opacity:1;stroke:none;font-family:Sans"
       id="text3021-1-3-2">
      <path
         d="m -890.99304,316.42108 0,-19.68506 2.41699,0 0,7.06299 c 1.12792,-1.30695 2.55126,-1.96043 4.27002,-1.96045 1.05631,2e-5 1.97387,0.20815 2.75269,0.62439 0.77879,0.41627 1.33604,0.99143 1.67175,1.72547 0.33568,0.73406 0.50352,1.79932 0.50354,3.1958 l 0,9.03686 -2.41699,0 0,-9.03686 c -10e-6,-1.20849 -0.26186,-2.08801 -0.78553,-2.63855 -0.52369,-0.55053 -1.26445,-0.8258 -2.22229,-0.82581 -0.71615,10e-6 -1.38977,0.18576 -2.02087,0.55725 -0.63111,0.37151 -1.08094,0.87505 -1.34949,1.51062 -0.26856,0.63559 -0.40283,1.51287 -0.40283,2.63184 l 0,7.80151 z"
         style=""
         id="path6640" />
      <path
         d="m -876.74755,318.54329 1.57107,-0.20948 c 0.18038,0.89028 0.48732,1.53179 0.92082,1.92456 0.43349,0.39277 0.96155,0.58915 1.58416,0.58915 0.73898,0 1.36304,-0.25603 1.87219,-0.76808 0.50913,-0.51205 0.7637,-1.14629 0.76371,-1.90273 -10e-6,-0.72153 -0.23567,-1.3165 -0.70698,-1.78491 -0.47133,-0.46841 -1.07066,-0.70261 -1.798,-0.70262 -0.29676,10e-6 -0.66625,0.0582 -1.10847,0.17457 l 0.17456,-1.37905 c 0.10473,0.0116 0.1891,0.0175 0.25311,0.0174 0.66916,1e-5 1.2714,-0.17455 1.80673,-0.52369 0.53532,-0.34911 0.80298,-0.88735 0.80299,-1.6147 -10e-6,-0.57605 -0.19493,-1.05319 -0.58478,-1.43142 -0.38987,-0.37821 -0.89319,-0.56732 -1.50997,-0.56733 -0.61098,1e-5 -1.12012,0.19203 -1.52743,0.57606 -0.40732,0.38405 -0.66916,0.96011 -0.78553,1.72817 l -1.57107,-0.2793 c 0.19202,-1.05318 0.62842,-1.86927 1.30922,-2.44824 0.68079,-0.57896 1.52742,-0.86844 2.53989,-0.86846 0.69825,2e-5 1.34122,0.14985 1.92892,0.4495 0.58769,0.29968 1.03719,0.70845 1.3485,1.22631 0.3113,0.51788 0.46695,1.06775 0.46696,1.64962 -10e-6,0.55279 -0.14839,1.05611 -0.44514,1.50997 -0.29676,0.45387 -0.73608,0.81463 -1.31795,1.08229 0.75644,0.17457 1.34413,0.53679 1.76309,1.08665 0.41894,0.54988 0.62842,1.23795 0.62843,2.06421 -10e-6,1.11721 -0.40733,2.06421 -1.22194,2.84102 -0.81464,0.7768 -1.84456,1.1652 -3.08977,1.1652 -1.12303,0 -2.05548,-0.33458 -2.79737,-1.00373 -0.7419,-0.66916 -1.16521,-1.53616 -1.26995,-2.60099 z"
         style="font-size:65.00091553%;baseline-shift:sub"
         id="path6642" />
      <path
         d="m -845.39231,304.84637 -12.99805,0 0,-2.25585 12.99805,0 z m 0,5.97535 -12.99805,0 0,-2.25586 12.99805,0 z"
         style=""
         id="path6644" />
      <path
         d="m -834.42186,316.42108 0,-19.68506 2.417,0 0,7.06299 c 1.12792,-1.30695 2.55126,-1.96043 4.27002,-1.96045 1.0563,2e-5 1.97386,0.20815 2.75268,0.62439 0.7788,0.41627 1.33605,0.99143 1.67175,1.72547 0.33568,0.73406 0.50353,1.79932 0.50354,3.1958 l 0,9.03686 -2.41699,0 0,-9.03686 c -1e-5,-1.20849 -0.26185,-2.08801 -0.78552,-2.63855 -0.52369,-0.55053 -1.26445,-0.8258 -2.22229,-0.82581 -0.71615,10e-6 -1.38978,0.18576 -2.02087,0.55725 -0.63111,0.37151 -1.08094,0.87505 -1.34949,1.51062 -0.26856,0.63559 -0.40284,1.51287 -0.40283,2.63184 l 0,7.80151 z"
         style=""
         id="path6646" />
      <path
         d="m -811.92826,320.41111 0,1.50997 -8.45758,0 c -0.0116,-0.37822 0.0495,-0.74189 0.18329,-1.09102 0.21529,-0.57605 0.56005,-1.14338 1.03429,-1.70199 0.47422,-0.55859 1.15938,-1.20448 2.05547,-1.93765 1.39069,-1.14047 2.33041,-2.04383 2.8192,-2.71009 0.48877,-0.66624 0.73315,-1.29612 0.73316,-1.88964 -10e-6,-0.6226 -0.22257,-1.14774 -0.6677,-1.57543 -0.44514,-0.42767 -1.02556,-0.64151 -1.74127,-0.64152 -0.75644,10e-6 -1.36159,0.22694 -1.81545,0.68079 -0.45387,0.45388 -0.68371,1.0823 -0.68953,1.88528 l -1.6147,-0.16583 c 0.11055,-1.20447 0.52659,-2.12238 1.24812,-2.75373 0.72153,-0.63133 1.69035,-0.94699 2.90648,-0.94701 1.22775,2e-5 2.19948,0.34041 2.9152,1.0212 0.7157,0.6808 1.07355,1.52453 1.07356,2.53116 -10e-6,0.51206 -0.10475,1.01538 -0.31421,1.50997 -0.20949,0.4946 -0.55716,1.01538 -1.04302,1.56234 -0.48587,0.54697 -1.29322,1.29759 -2.42206,2.25186 -0.94264,0.79136 -1.54779,1.32814 -1.81545,1.61035 -0.26767,0.28221 -0.48878,0.56587 -0.66334,0.85099 z"
         style="font-size:65.00091553%;baseline-shift:sub"
         id="path6648" />
      <path
         d="m -804.08846,313.23871 0,-5.39795 -5.35767,0 0,-2.25586 5.35767,0 0,-5.35767 2.28271,0 0,5.35767 5.35767,0 0,2.25586 -5.35767,0 0,5.39795 z"
         style=""
         id="path6650" />
      <path
         d="m -792.90316,316.42108 0,-19.68506 2.60498,0 0,9.76197 9.77539,-9.76197 3.5315,0 -8.25806,7.97608 8.6206,11.70898 -3.4375,0 -7.00927,-9.96338 -3.22266,3.14209 0,6.82129 z"
         style=""
         id="path6652" />
      <path
         d="m -775.37861,310.9498 0,-1.82419 1.57107,0 0,1.82419 z m -1.99002,14.56728 0.29676,-1.33541 c 0.31421,0.0815 0.56151,0.12219 0.74189,0.1222 0.32004,-1e-5 0.5586,-0.1062 0.71571,-0.31858 0.15711,-0.21239 0.23566,-0.74335 0.23566,-1.59289 l 0,-9.74061 1.57107,0 0,9.77552 c 0,1.14048 -0.14838,1.93474 -0.44514,2.38279 -0.37822,0.58187 -1.00664,0.87281 -1.88528,0.87281 -0.42477,0 -0.83499,-0.0553 -1.23067,-0.16583 z"
         style="font-size:65.00091553%;baseline-shift:sub"
         id="path6654" />
      <path
         d="m -765.67972,313.23871 0,-5.39795 -5.35766,0 0,-2.25586 5.35766,0 0,-5.35767 2.28272,0 0,5.35767 5.35766,0 0,2.25586 -5.35766,0 0,5.39795 z"
         style=""
         id="path6656" />
      <path
         d="m -750.94949,316.42108 -5.22339,-19.68506 2.67212,0 2.99438,12.90406 c 0.32226,1.35173 0.59977,2.6945 0.83252,4.02832 0.5013,-2.10368 0.79671,-3.31665 0.88623,-3.63892 l 3.74634,-13.29346 3.14209,0 2.81982,9.96338 c 0.70718,2.47071 1.21743,4.79371 1.53077,6.969 0.25063,-1.2443 0.57737,-2.67212 0.98022,-4.28345 l 3.08838,-12.64893 2.61841,0 -5.39795,19.68506 -2.51099,0 -4.14917,-14.99878 c -0.34913,-1.25324 -0.55502,-2.02309 -0.61767,-2.30957 -0.20591,0.90415 -0.39837,1.67401 -0.5774,2.30957 l -4.17602,14.99878 z"
         style=""
         id="path6658" />
      <path
         d="m -729.39662,310.9498 0,-1.82419 1.57107,0 0,1.82419 z m -1.99002,14.56728 0.29676,-1.33541 c 0.31421,0.0815 0.56151,0.12219 0.74189,0.1222 0.32003,-1e-5 0.5586,-0.1062 0.71571,-0.31858 0.15711,-0.21239 0.23566,-0.74335 0.23566,-1.59289 l 0,-9.74061 1.57107,0 0,9.77552 c -10e-6,1.14048 -0.14838,1.93474 -0.44514,2.38279 -0.37822,0.58187 -1.00665,0.87281 -1.88528,0.87281 -0.42477,0 -0.83499,-0.0553 -1.23067,-0.16583 z"
         style="font-size:65.00091553%;baseline-shift:sub"
         id="path6660" />
    </g>
    <path
       style="fill:none;stroke:#000000;stroke-width:1.06242073;stroke-linecap:butt;stroke-linejoin:miter;stroke-miterlimit:4;stroke-opacity:1;stroke-dasharray:4.24968296, 4.24968296;stroke-dashoffset:0;marker-end:url(#Arrow1Lend)"
       d="m -783.84715,230.6343 1.95787,62.56703"
       id="path4361-9-2-6-7-3"
       inkscape:connector-curvature="0"
       sodipodi:nodetypes="cc" />
    <path
       style="fill:none;stroke:#000000;stroke-width:1.06242073;stroke-linecap:butt;stroke-linejoin:miter;stroke-miterlimit:4;stroke-opacity:1;stroke-dasharray:4.24968296, 4.24968296;stroke-dashoffset:0;marker-end:url(#Arrow1Lend)"
       d="m -1256.2615,39.715469 48.425,-41.4786803"
       id="path4361-9-2-6-7-3-1"
       inkscape:connector-curvature="0"
       sodipodi:nodetypes="cc" />
    <path
       style="fill:none;stroke:#000000;stroke-width:1.06242073;stroke-linecap:butt;stroke-linejoin:miter;stroke-miterlimit:4;stroke-opacity:1;stroke-dasharray:4.24968296, 4.24968296;stroke-dashoffset:0;marker-end:url(#Arrow1Lend)"
       d="m -1255.0834,-69.886083 47.4148,45.39444"
       id="path4361-9-2-6-7-3-1-2"
       inkscape:connector-curvature="0"
       sodipodi:nodetypes="cc" />
    <path
       style="fill:none;stroke:#000000;stroke-width:1.06242073;stroke-linecap:butt;stroke-linejoin:miter;stroke-miterlimit:4;stroke-opacity:1;stroke-dasharray:4.24968296, 4.24968296;stroke-dashoffset:0;marker-end:url(#Arrow1Lend)"
       d="m -1259.124,-14.327692 56.5062,-0.06243"
       id="path4361-9-2-6-7-3-1-3"
       inkscape:connector-curvature="0"
       sodipodi:nodetypes="cc" />
    <path
       style="fill:none;stroke:#000000;stroke-width:1.06242073;stroke-linecap:butt;stroke-linejoin:miter;stroke-miterlimit:4;stroke-opacity:1;stroke-dasharray:4.24968296, 4.24968296;stroke-dashoffset:0;marker-end:url(#Arrow1Lend)"
       d="m -1255.0833,-74.936843 167.6229,-3.092884"
       id="path4361-9-2-6-7-3-1-2-5"
       inkscape:connector-curvature="0"
       sodipodi:nodetypes="cc" />
    <path
       style="fill:none;stroke:#000000;stroke-width:1px;stroke-linecap:butt;stroke-linejoin:miter;stroke-opacity:1;marker-end:url(#Arrow1Lend)"
       d="m -1252.0841,92.717262 316.17781,0"
       id="path4361-2-8"
       inkscape:connector-curvature="0"
       sodipodi:nodetypes="cc" />
    <g
       style="font-size:27.5px;font-style:normal;font-weight:normal;line-height:125%;letter-spacing:0px;word-spacing:0px;fill:#000000;fill-opacity:1;stroke:none;font-family:Sans"
       id="text2997-6">
      <path
         d="m -914.24701,101.3682 0,-1.799314 c -0.90414,1.414384 -2.23349,2.121584 -3.98804,2.121584 -1.13688,0 -2.18201,-0.31332 -3.13537,-0.93994 -0.95337,-0.62663 -1.6919,-1.50167 -2.21558,-2.625126 -0.52368,-1.123449 -0.78552,-2.414748 -0.78552,-3.873901 0,-1.423331 0.23722,-2.71463 0.71167,-3.873901 0.47444,-1.159249 1.18611,-2.047717 2.13501,-2.665406 0.94889,-0.617661 2.00968,-0.926499 3.18237,-0.926513 0.85937,1.4e-5 1.62475,0.181288 2.29614,0.543823 0.67138,0.362562 1.21744,0.834771 1.63819,1.416626 l 0,-7.062988 2.40356,0 0,19.685056 z m -7.64038,-7.116697 c 0,1.826177 0.38492,3.191329 1.15479,4.095459 0.76985,0.904136 1.67846,1.356203 2.72583,1.356201 1.0563,2e-6 1.95372,-0.431923 2.69226,-1.295776 0.73851,-0.863847 1.10777,-2.182002 1.10778,-3.954468 -10e-6,-1.951489 -0.37598,-3.383779 -1.12793,-4.296875 -0.75196,-0.913074 -1.67847,-1.369616 -2.77954,-1.369629 -1.07422,1.3e-5 -1.97164,0.438652 -2.69226,1.315918 -0.72062,0.877289 -1.08093,2.260344 -1.08093,4.14917 z"
         style=""
         id="path6625" />
      <path
         d="m -903.34427,106.8682 -1.57106,0 0,-10.011186 c -0.37823,0.360773 -0.87428,0.721536 -1.48815,1.08229 -0.61389,0.360773 -1.16521,0.631345 -1.65399,0.811718 l 0,-1.518698 c 0.87863,-0.413122 1.64671,-0.913536 2.30423,-1.501242 0.65752,-0.587683 1.12302,-1.157922 1.39651,-1.710717 l 1.01246,0 z"
         style="font-size:65.00091553%;baseline-shift:sub"
         id="path6627" />
      <path
         d="m -877.89799,89.793495 -12.99805,0 0,-2.255859 12.99805,0 z m 0,5.975342 -12.99805,0 0,-2.255859 12.99805,0 z"
         style=""
         id="path6629" />
      <path
         d="m -857.67582,101.3682 0,-1.799314 c -0.90415,1.414384 -2.23349,2.121584 -3.98804,2.121584 -1.13689,0 -2.18201,-0.31332 -3.13538,-0.93994 -0.95337,-0.62663 -1.69189,-1.50167 -2.21557,-2.625126 -0.52369,-1.123449 -0.78553,-2.414748 -0.78552,-3.873901 -10e-6,-1.423331 0.23722,-2.71463 0.71166,-3.873901 0.47445,-1.159249 1.18612,-2.047717 2.13501,-2.665406 0.94889,-0.617661 2.00968,-0.926499 3.18238,-0.926513 0.85936,1.4e-5 1.62475,0.181288 2.29614,0.543823 0.67138,0.362562 1.21744,0.834771 1.63818,1.416626 l 0,-7.062988 2.40357,0 0,19.685056 z m -7.64038,-7.116697 c -10e-6,1.826177 0.38492,3.191329 1.15478,4.095459 0.76985,0.904136 1.67846,1.356203 2.72583,1.356201 1.05631,2e-6 1.95373,-0.431923 2.69226,-1.295776 0.73852,-0.863847 1.10778,-2.182002 1.10779,-3.954468 -10e-6,-1.951489 -0.37599,-3.383779 -1.12793,-4.296875 -0.75196,-0.913074 -1.67847,-1.369616 -2.77954,-1.369629 -1.07423,1.3e-5 -1.97164,0.438652 -2.69226,1.315918 -0.72063,0.877289 -1.08094,2.260344 -1.08093,4.14917 z"
         style=""
         id="path6631" />
      <path
         d="m -846.54424,98.185829 0,-5.397949 -5.35766,0 0,-2.255859 5.35766,0 0,-5.357666 2.28272,0 0,5.357666 5.35767,0 0,2.255859 -5.35767,0 0,5.397949 z"
         style=""
         id="path6633" />
      <path
         d="m -835.56035,101.3682 0,-19.685056 2.41699,0 0,7.062988 c 1.12793,-1.306952 2.55127,-1.960435 4.27002,-1.960449 1.05631,1.4e-5 1.97387,0.208144 2.75269,0.624389 0.7788,0.416274 1.33605,0.991428 1.67175,1.725464 0.33568,0.734061 0.50353,1.799327 0.50354,3.195801 l 0,9.036863 -2.41699,0 0,-9.036863 c -10e-6,-1.208486 -0.26185,-2.088002 -0.78552,-2.63855 -0.52369,-0.550525 -1.26446,-0.825793 -2.22229,-0.825805 -0.71616,1.2e-5 -1.38978,0.185762 -2.02088,0.55725 -0.63111,0.371513 -1.08093,0.875052 -1.34948,1.510621 -0.26856,0.635589 -0.40284,1.512867 -0.40284,2.631836 l 0,7.801511 z"
         style=""
         id="path6635" />
      <path
         d="m -821.31485,103.49041 1.57106,-0.20948 c 0.18038,0.89028 0.48732,1.53179 0.92082,1.92456 0.4335,0.39277 0.96155,0.58915 1.58416,0.58915 0.73898,0 1.36304,-0.25602 1.87219,-0.76808 0.50913,-0.51205 0.76371,-1.14629 0.76371,-1.90273 0,-0.72153 -0.23566,-1.3165 -0.70698,-1.78491 -0.47132,-0.46841 -1.07066,-0.70261 -1.798,-0.70262 -0.29676,10e-6 -0.66625,0.0582 -1.10847,0.17457 l 0.17456,-1.379052 c 0.10474,0.01164 0.18911,0.01746 0.25312,0.01746 0.66915,8e-6 1.27139,-0.174555 1.80673,-0.523689 0.53532,-0.349117 0.80298,-0.887353 0.80299,-1.614707 -1e-5,-0.576048 -0.19494,-1.053187 -0.58479,-1.431417 -0.38986,-0.378208 -0.89319,-0.567318 -1.50997,-0.56733 -0.61098,1.2e-5 -1.12012,0.192031 -1.52743,0.576058 -0.40731,0.384049 -0.66916,0.960107 -0.78553,1.728174 l -1.57107,-0.279301 c 0.19202,-1.053186 0.62843,-1.869267 1.30922,-2.448246 0.6808,-0.578955 1.52743,-0.868438 2.5399,-0.868451 0.69824,1.3e-5 1.34122,0.149846 1.92892,0.4495 0.58769,0.299678 1.03719,0.708446 1.3485,1.226305 0.31129,0.517881 0.46694,1.067754 0.46695,1.64962 -10e-6,0.552792 -0.14838,1.056115 -0.44513,1.50997 -0.29677,0.453872 -0.73608,0.814635 -1.31795,1.082291 0.75643,0.174569 1.34412,0.536789 1.76308,1.086659 0.41895,0.54987 0.62842,1.23794 0.62843,2.0642 -10e-6,1.11721 -0.40732,2.06421 -1.22194,2.84102 -0.81464,0.7768 -1.84456,1.1652 -3.08977,1.1652 -1.12302,0 -2.05548,-0.33457 -2.79737,-1.00373 -0.74189,-0.66916 -1.16521,-1.53616 -1.26994,-2.60099 z"
         style="font-size:65.00091553%;baseline-shift:sub"
         id="path6637" />
    </g>
    <path
       style="fill:none;stroke:#000000;stroke-width:1.06242073;stroke-linecap:butt;stroke-linejoin:miter;stroke-miterlimit:4;stroke-opacity:1;stroke-dasharray:4.24968296, 4.24968296;stroke-dashoffset:0;marker-end:url(#Arrow1Lend)"
       d="M -858.26139,286.19269 -868.42535,112.38403"
       id="path4361-9-2-6-7-3-0"
       inkscape:connector-curvature="0"
       sodipodi:nodetypes="cc" />
    <path
       style="fill:none;stroke:#000000;stroke-width:1px;stroke-linecap:butt;stroke-linejoin:miter;stroke-opacity:1;marker-end:url(#Arrow1Lend)"
       d="m -738.42152,286.16152 0,-231.325006"
       id="path4361-2-8-3"
       inkscape:connector-curvature="0"
       sodipodi:nodetypes="cc" />
    <g
       style="font-size:27.5px;font-style:normal;font-weight:normal;line-height:125%;letter-spacing:0px;word-spacing:0px;fill:#000000;fill-opacity:1;stroke:none;font-family:Sans"
       id="text3021-1-3-2-4">
      <path
         d="m -799.51556,-60.66507 0,-19.685058 2.41699,0 0,7.062988 c 1.12792,-1.306952 2.55126,-1.960435 4.27002,-1.960449 1.0563,1.4e-5 1.97386,0.208144 2.75268,0.62439 0.7788,0.416273 1.33605,0.991427 1.67176,1.725463 0.33568,0.734061 0.50352,1.799327 0.50354,3.195801 l 0,9.036865 -2.417,0 0,-9.036865 c -10e-6,-1.208486 -0.26185,-2.088001 -0.78552,-2.63855 -0.52369,-0.550525 -1.26445,-0.825793 -2.22229,-0.825805 -0.71615,1.2e-5 -1.38978,0.185762 -2.02087,0.557251 -0.63111,0.371512 -1.08094,0.875051 -1.34949,1.51062 -0.26856,0.635589 -0.40284,1.512867 -0.40283,2.631836 l 0,7.801513 z"
         style=""
         id="path6589" />
      <path
         d="m -785.2788,-58.516679 1.64962,-0.139651 c 0.12219,0.802993 0.40586,1.406689 0.851,1.811091 0.44513,0.404406 0.98191,0.606608 1.61034,0.606607 0.75643,1e-6 1.3965,-0.285118 1.92019,-0.855359 0.52369,-0.570236 0.78553,-1.326675 0.78554,-2.269319 -10e-6,-0.896085 -0.25167,-1.603064 -0.75499,-2.12094 -0.50333,-0.517864 -1.1623,-0.776799 -1.97692,-0.776806 -0.50624,7e-6 -0.96301,0.114928 -1.37032,0.344762 -0.40732,0.229848 -0.72735,0.528059 -0.9601,0.894636 l -1.47506,-0.19202 1.2394,-6.572297 6.36282,0 0,1.501242 -5.10597,0 -0.68952,3.438891 c 0.76807,-0.535318 1.57397,-0.802981 2.4177,-0.80299 1.11719,9e-6 2.05983,0.386956 2.82792,1.160844 0.76807,0.773903 1.1521,1.768911 1.15211,2.985028 -10e-6,1.157938 -0.33749,2.158764 -1.01246,3.002483 -0.82046,1.035741 -1.94057,1.553611 -3.36034,1.553611 -1.16376,0 -2.11367,-0.325851 -2.84974,-0.977553 -0.73608,-0.6517 -1.15648,-1.515786 -1.26122,-2.59226 z"
         style="font-size:65.00091553%;baseline-shift:sub"
         id="path6591" />
      <path
         d="m -753.91484,-72.239777 -12.99804,0 0,-2.255859 12.99804,0 z m 0,5.975342 -12.99804,0 0,-2.255859 12.99804,0 z"
         style=""
         id="path6593" />
      <path
         d="m -742.94438,-60.66507 0,-19.685058 2.41699,0 0,7.062988 c 1.12793,-1.306952 2.55127,-1.960435 4.27002,-1.960449 1.05631,1.4e-5 1.97387,0.208144 2.75269,0.62439 0.7788,0.416273 1.33605,0.991427 1.67175,1.725463 0.33568,0.734061 0.50353,1.799327 0.50354,3.195801 l 0,9.036865 -2.41699,0 0,-9.036865 c -10e-6,-1.208486 -0.26185,-2.088001 -0.78552,-2.63855 -0.52369,-0.550525 -1.26446,-0.825793 -2.22229,-0.825805 -0.71616,1.2e-5 -1.38978,0.185762 -2.02088,0.557251 -0.63111,0.371512 -1.08093,0.875051 -1.34948,1.51062 -0.26856,0.635589 -0.40284,1.512867 -0.40284,2.631836 l 0,7.801513 z"
         style=""
         id="path6595" />
      <path
         d="m -723.67147,-55.16507 0,-3.06358 -5.55111,0 0,-1.440145 5.83914,-8.291743 1.28303,0 0,8.291743 1.72818,0 0,1.440145 -1.72818,0 0,3.06358 z m 0,-4.503725 0,-5.769307 -4.00622,5.769307 z"
         style="font-size:65.00091553%;baseline-shift:sub"
         id="path6597" />
      <path
         d="m -712.61098,-63.847443 0,-5.397949 -5.35767,0 0,-2.255859 5.35767,0 0,-5.357666 2.28271,0 0,5.357666 5.35767,0 0,2.255859 -5.35767,0 0,5.397949 z"
         style=""
         id="path6599" />
      <path
         d="m -688.06509,-80.350128 0,2.322998 -10.56762,0 6.71386,7.143555 -6.71386,7.895507 11.11816,0 0,2.322998 -13.93799,0 0,-2.712402 6.43189,-7.506103 -6.43189,-6.848145 0,-2.618408 z"
         style=""
         id="path6601" />
      <path
         d="m -685.67158,-61.475522 c 0,-1.512872 0.15565,-2.730448 0.46695,-3.652731 0.31131,-0.922264 0.7739,-1.633607 1.38778,-2.134033 0.61388,-0.500401 1.38632,-0.750608 2.31732,-0.750621 0.68661,1.3e-5 1.28885,0.138209 1.80673,0.414587 0.51786,0.276404 0.94554,0.674989 1.28304,1.195757 0.33748,0.52079 0.60223,1.155035 0.79426,1.902737 0.19201,0.74772 0.28802,1.75582 0.28803,3.024304 -1e-5,1.501246 -0.15421,2.713003 -0.46259,3.635274 -0.30841,0.922277 -0.76954,1.635075 -1.38341,2.138397 -0.61389,0.503324 -1.38924,0.754985 -2.32606,0.754985 -1.23358,0 -2.2024,-0.442226 -2.90647,-1.326679 -0.84372,-1.064832 -1.26558,-2.798823 -1.26558,-5.201977 z m 1.61471,0 c -10e-6,2.100579 0.24584,3.498536 0.73752,4.193876 0.49169,0.695344 1.09829,1.043015 1.81982,1.043014 0.72153,1e-6 1.32813,-0.349125 1.81982,-1.047378 0.49168,-0.698249 0.73752,-2.094752 0.73753,-4.189512 -10e-6,-2.106385 -0.24585,-3.505797 -0.73753,-4.198241 -0.49169,-0.692422 -1.10411,-1.038638 -1.83727,-1.038649 -0.72153,1.1e-5 -1.29759,0.305496 -1.72818,0.916455 -0.54114,0.779725 -0.81172,2.219868 -0.81171,4.320435 z"
         style="font-size:65.00091553%;baseline-shift:sub"
         id="path6603" />
    </g>
    <g
       style="font-size:27.5px;font-style:normal;font-weight:normal;line-height:125%;letter-spacing:0px;word-spacing:0px;fill:#000000;fill-opacity:1;stroke:none;font-family:Sans"
       id="text3021-1-3-2-4-3">
      <path
         d="m -807.6886,39.512844 0,-19.685059 2.41699,0 0,7.062989 c 1.12793,-1.306952 2.55127,-1.960435 4.27002,-1.960449 1.05631,1.4e-5 1.97387,0.208144 2.75269,0.624389 0.7788,0.416274 1.33605,0.991428 1.67175,1.725464 0.33568,0.734061 0.50353,1.799327 0.50354,3.195801 l 0,9.036865 -2.41699,0 0,-9.036865 c -10e-6,-1.208486 -0.26185,-2.088002 -0.78552,-2.63855 -0.52369,-0.550525 -1.26446,-0.825793 -2.22229,-0.825806 -0.71616,1.3e-5 -1.38978,0.185763 -2.02088,0.557251 -0.63111,0.371513 -1.08093,0.875052 -1.34948,1.51062 -0.26856,0.63559 -0.40284,1.512867 -0.40284,2.631836 l 0,7.801514 z"
         style=""
         id="path6606" />
      <path
         d="m -788.41569,45.012844 0,-3.063581 -5.5511,0 0,-1.440144 5.83913,-8.291743 1.28304,0 0,8.291743 1.72817,0 0,1.440144 -1.72817,0 0,3.063581 z m 0,-4.503725 0,-5.769308 -4.00622,5.769308 z"
         style="font-size:65.00091553%;baseline-shift:sub"
         id="path6608" />
      <path
         d="m -762.08787,27.938137 -12.99805,0 0,-2.255859 12.99805,0 z m 0,5.975342 -12.99805,0 0,-2.25586 12.99805,0 z"
         style=""
         id="path6610" />
      <path
         d="m -751.11741,39.512844 0,-19.685059 2.41699,0 0,7.062989 c 1.12792,-1.306952 2.55126,-1.960435 4.27002,-1.960449 1.0563,1.4e-5 1.97387,0.208144 2.75268,0.624389 0.7788,0.416274 1.33605,0.991428 1.67176,1.725464 0.33568,0.734061 0.50352,1.799327 0.50354,3.195801 l 0,9.036865 -2.41699,0 0,-9.036865 c -2e-5,-1.208486 -0.26186,-2.088002 -0.78553,-2.63855 -0.52369,-0.550525 -1.26445,-0.825793 -2.22229,-0.825806 -0.71615,1.3e-5 -1.38977,0.185763 -2.02087,0.557251 -0.63111,0.371513 -1.08094,0.875052 -1.34949,1.51062 -0.26856,0.63559 -0.40283,1.512867 -0.40283,2.631836 l 0,7.801514 z"
         style=""
         id="path6612" />
      <path
         d="m -736.87192,41.63505 1.57106,-0.209476 c 0.18038,0.890274 0.48732,1.531793 0.92082,1.924557 0.4335,0.392768 0.96155,0.589152 1.58416,0.589151 0.73898,1e-6 1.36304,-0.256025 1.87219,-0.768078 0.50914,-0.512049 0.76371,-1.146294 0.76372,-1.902736 -10e-6,-0.721523 -0.23567,-1.316491 -0.70699,-1.784907 -0.47132,-0.468405 -1.07065,-0.70261 -1.79799,-0.702616 -0.29677,6e-6 -0.66626,0.05819 -1.10848,0.174563 l 0.17456,-1.379048 c 0.10474,0.01165 0.18911,0.01746 0.25312,0.01746 0.66915,8e-6 1.2714,-0.174555 1.80673,-0.523689 0.53532,-0.349117 0.80298,-0.887353 0.80299,-1.614707 -10e-6,-0.576048 -0.19494,-1.053187 -0.58479,-1.431417 -0.38986,-0.378209 -0.89318,-0.567318 -1.50997,-0.56733 -0.61097,1.2e-5 -1.12012,0.192031 -1.52743,0.576058 -0.40731,0.384049 -0.66916,0.960107 -0.78553,1.728174 l -1.57107,-0.279301 c 0.19202,-1.053186 0.62843,-1.869267 1.30923,-2.448246 0.68079,-0.578955 1.52742,-0.868438 2.53989,-0.868451 0.69825,1.3e-5 1.34122,0.149846 1.92892,0.4495 0.58769,0.299678 1.03719,0.708446 1.3485,1.226305 0.31129,0.517881 0.46695,1.067754 0.46696,1.64962 -10e-6,0.552792 -0.14839,1.056115 -0.44514,1.50997 -0.29677,0.453872 -0.73608,0.814635 -1.31795,1.082291 0.75643,0.17457 1.34413,0.536787 1.76309,1.086654 0.41894,0.549879 0.62841,1.237948 0.62842,2.064208 -1e-5,1.117206 -0.40732,2.064209 -1.22194,2.841013 -0.81463,0.776805 -1.84455,1.165208 -3.08976,1.165208 -1.12303,0 -2.05549,-0.334579 -2.79738,-1.003737 -0.74189,-0.669157 -1.16521,-1.536152 -1.26994,-2.600989 z"
         style="font-size:65.00091553%;baseline-shift:sub"
         id="path6614" />
      <path
         d="m -720.78402,36.330471 0,-5.397949 -5.35767,0 0,-2.25586 5.35767,0 0,-5.357666 2.28272,0 0,5.357666 5.35766,0 0,2.25586 -5.35766,0 0,5.397949 z"
         style=""
         id="path6616" />
      <path
         d="m -709.57186,39.512844 0,-19.685059 3.9209,0 4.65942,13.937989 c 0.42968,1.298019 0.74299,2.26929 0.93994,2.913818 0.22379,-0.716142 0.57291,-1.76798 1.04737,-3.155517 l 4.71313,-13.69629 3.50464,0 0,19.685059 -2.51099,0 0,-16.47583 -5.72021,16.47583 -2.34986,0 -5.69335,-16.757812 0,16.757812 z"
         style=""
         id="path6618" />
      <path
         d="m -677.56014,37.753811 c -0.8952,0.760906 -1.75681,1.298015 -2.58484,1.611328 -0.82805,0.313314 -1.71652,0.46997 -2.66541,0.469971 -1.56657,-10e-7 -2.77059,-0.382691 -3.61206,-1.148072 -0.84147,-0.765379 -1.26221,-1.743365 -1.2622,-2.93396 -10e-6,-0.698237 0.15889,-1.336054 0.47668,-1.913452 0.31779,-0.577386 0.73405,-1.040642 1.24878,-1.38977 0.51473,-0.349114 1.09436,-0.613192 1.73889,-0.792237 0.47444,-0.125317 1.19059,-0.246167 2.14844,-0.362548 1.95149,-0.232739 3.38825,-0.510246 4.3103,-0.83252 0.009,-0.331208 0.0134,-0.541576 0.0134,-0.631103 -1e-5,-0.98469 -0.22828,-1.678456 -0.68482,-2.081299 -0.61768,-0.546049 -1.53524,-0.819079 -2.75268,-0.819092 -1.13689,1.3e-5 -1.97612,0.19919 -2.5177,0.597534 -0.54159,0.398368 -0.94218,1.103323 -1.20178,2.114868 l -2.36328,-0.322265 c 0.21484,-1.011545 0.56843,-1.828398 1.06079,-2.450562 0.49234,-0.622138 1.20401,-1.10106 2.13501,-1.436767 0.93098,-0.335679 2.00967,-0.503526 3.23608,-0.50354 1.21744,1.4e-5 2.20661,0.143243 2.96753,0.429687 0.76089,0.286472 1.32038,0.646783 1.67847,1.080933 0.35806,0.434176 0.60871,0.982474 0.75195,1.644897 0.0806,0.411795 0.12084,1.154796 0.12085,2.229004 l 0,3.222656 c -10e-6,2.246912 0.0515,3.668012 0.15442,4.263306 0.10293,0.595297 0.30658,1.165975 0.61096,1.712036 l -2.52441,0 c -0.25067,-0.501301 -0.4118,-1.087645 -0.4834,-1.759033 z m -0.20142,-5.397949 c -0.87729,0.358079 -2.1932,0.662441 -3.94775,0.913086 -0.99366,0.143235 -1.69638,0.304368 -2.10816,0.483398 -0.41179,0.179042 -0.72957,0.440883 -0.95337,0.785522 -0.2238,0.34465 -0.33569,0.72734 -0.33569,1.148072 0,0.644534 0.24393,1.181643 0.73181,1.611328 0.48787,0.429689 1.20178,0.644533 2.14173,0.644531 0.93098,2e-6 1.75902,-0.203652 2.48413,-0.610962 0.72508,-0.407305 1.25772,-0.964556 1.5979,-1.671753 0.25959,-0.546056 0.38939,-1.35172 0.3894,-2.416992 z"
         style=""
         id="path6620" />
      <path
         d="m -671.57138,22.634182 0,-2.806397 2.41699,0 0,2.806397 z m -3.06152,22.410889 0.45654,-2.054444 c 0.4834,0.125322 0.86385,0.187985 1.14136,0.187989 0.49235,-4e-6 0.85937,-0.163375 1.10107,-0.490113 0.2417,-0.326744 0.36255,-1.143597 0.36255,-2.450561 l 0,-14.985352 2.41699,0 0,15.039063 c 0,1.754554 -0.22827,2.976477 -0.68481,3.665771 -0.58187,0.895177 -1.54867,1.342768 -2.90039,1.342774 -0.65349,-6e-6 -1.28459,-0.08505 -1.89331,-0.255127 z"
         style=""
         id="path6622" />
    </g>
    <path
       style="fill:none;stroke:#000000;stroke-width:1px;stroke-linecap:butt;stroke-linejoin:miter;stroke-opacity:1;marker-end:url(#Arrow1Lend)"
       d="m -738.42152,18.471091 0,-69.700598"
       id="path4361-2-8-3-5"
       inkscape:connector-curvature="0"
       sodipodi:nodetypes="cc" />
    <path
       style="fill:none;stroke:#000000;stroke-width:1.06242073;stroke-linecap:butt;stroke-linejoin:miter;stroke-miterlimit:4;stroke-opacity:1;stroke-dasharray:4.24968296, 4.24968296;stroke-dashoffset:0;marker-end:url(#Arrow1Lend)"
       d="M -1151.5428,-7.2418407 -817.24465,28.051069"
       id="path4361-9-2-6-7-3-1-3-7"
       inkscape:connector-curvature="0"
       sodipodi:nodetypes="cc" />
    <path
       style="fill:none;stroke:#000000;stroke-width:1.06242073;stroke-linecap:butt;stroke-linejoin:miter;stroke-miterlimit:4;stroke-opacity:1;stroke-dasharray:4.24968296, 4.24968296;stroke-dashoffset:0;marker-end:url(#Arrow1Lend)"
       d="m -1049.5173,-77.200335 241.36405,9.028946"
       id="path4361-9-2-6-7-3-1-2-5-1"
       inkscape:connector-curvature="0"
       sodipodi:nodetypes="cc" />
    <flowRoot
       xml:space="preserve"
       id="flowRoot5466"
       style="fill:black;stroke:none;stroke-opacity:1;stroke-width:1px;stroke-linejoin:miter;stroke-linecap:butt;fill-opacity:1;font-family:Sans;font-style:normal;font-weight:normal;font-size:27.50000000000000000px;line-height:125%;letter-spacing:0px;word-spacing:0px"><flowRegion
         id="flowRegion5468"><rect
           id="rect5470"
           width="839.43677"
           height="666.70068"
           x="-157.5838"
           y="-185.16531" /></flowRegion><flowPara
         id="flowPara5472"></flowPara></flowRoot>  </g>
</svg>
